:FULLY-SPECIFIED
:FORCE-ALL-JOINTS-BE-3DOF
:DEGREES
178
root 8.11672 16.7217 -12.2461 7.83132 6.7511 -2.00493
lfemur -26.1463 8.12497 -17.8141
ltibia 62.1022 0 0
lfoot -9.83149 10.2243 0
ltoes -1.85775 0 0
rfemur -20.3997 3.19051 26.5568
rtibia 27.6689 0 0
rfoot -17.4109 1.64647 0
rtoes -15.3783 0 0
lowerback -4.43098 0.483911 0.443655
upperback -1.3352 0.583508 3.4605
thorax 1.08148 0.29699 3.35035
lowerneck -16.9638 -7.59338 -15.641
upperneck 13.6367 -9.42927 15.8989
head 8.59418 -3.88811 6.78303
lclavicle -4.74596e-15 -1.82882e-14 0
lhumerus -47.2199 -12.1396 96.6566
lradius 32.4702 0 0
lwrist 15.6035 0 0
lhand -12.8649 -25.5971 0
lfingers 7.12502 0 0
lthumb 13.2234 3.96296 0
rclavicle -4.74596e-15 -1.82882e-14 0
rhumerus -40.0769 11.0868 -79.2926
rradius 41.0719 0 0
rwrist -20.8749 0 0
rhand -30.6013 -23.9035 0
rfingers 7.12502 0 0
rthumb -3.89809 -53.8474 0
179
root 8.11327 16.7117 -12.1268 7.7883 6.55295 -2.05592
lfemur -27.3371 8.0294 -18.0528
ltibia 61.9049 0 0
lfoot -10.7815 10.4652 0
ltoes -2.57442 0 0
rfemur -19.9609 3.35661 26.7177
rtibia 27.7556 0 0
rfoot -17.7825 1.59829 0
rtoes -15.1687 0 0
lowerback -4.52615 0.593491 0.456103
upperback -0.980785 0.714867 3.4541
thorax 1.49213 0.3575 3.34774
lowerneck -17.8951 -7.72016 -15.4704
upperneck 13.8561 -9.51753 15.7897
head 8.83397 -3.88732 6.69298
lclavicle -6.90774e-15 -1.43125e-14 0
lhumerus -46.5305 -11.9174 96.3208
lradius 32.5863 0 0
lwrist 16.221 0 0
lhand -13.0065 -25.252 0
lfingers 7.12502 0 0
lthumb 13.087 4.31693 0
rclavicle -6.90774e-15 -1.43125e-14 0
rhumerus -38.9379 10.7648 -78.9065
rradius 41.4523 0 0
rwrist -20.8651 0 0
rhand -30.5144 -24.0255 0
rfingers 7.12502 0 0
rthumb -3.81419 -53.9709 0
180
root 8.10982 16.7017 -12.0076 7.74529 6.3548 -2.10691
lfemur -28.5279 7.93382 -18.2914
ltibia 61.7075 0 0
lfoot -11.7316 10.706 0
ltoes -3.29109 0 0
rfemur -19.5221 3.5227 26.8786
rtibia 27.8424 0 0
rfoot -18.154 1.55011 0
rtoes -14.9591 0 0
lowerback -4.62131 0.703071 0.46855
upperback -0.626371 0.846225 3.44769
thorax 1.90279 0.418009 3.34512
lowerneck -18.8265 -7.84693 -15.2998
upperneck 14.0756 -9.6058 15.6804
head 9.07377 -3.88652 6.60292
lclavicle -9.06952e-15 -1.03368e-14 0
lhumerus -45.8412 -11.6951 95.985
lradius 32.7025 0 0
lwrist 16.8384 0 0
lhand -13.148 -24.9069 0
lfingers 7.12502 0 0
lthumb 12.9505 4.67091 0
rclavicle -9.06952e-15 -1.03368e-14 0
rhumerus -37.7988 10.4428 -78.5205
rradius 41.8328 0 0
rwrist -20.8554 0 0
rhand -30.4275 -24.1474 0
rfingers 7.12502 0 0
rthumb -3.73029 -54.0944 0
181
root 8.10637 16.6917 -11.8883 7.70227 6.15665 -2.15791
lfemur -29.7187 7.83825 -18.53
ltibia 61.5101 0 0
lfoot -12.6816 10.9469 0
ltoes -4.00776 0 0
rfemur -19.0833 3.6888 27.0395
rtibia 27.9291 0 0
rfoot -18.5255 1.50193 0
rtoes -14.7495 0 0
lowerback -4.71648 0.812651 0.480998
upperback -0.271957 0.977584 3.44129
thorax 2.31344 0.478519 3.3425
lowerneck -19.7579 -7.97371 -15.1292
upperneck 14.295 -9.69407 15.5712
head 9.31356 -3.88573 6.51286
lclavicle -1.12313e-14 -6.36111e-15 0
lhumerus -45.1518 -11.4728 95.6492
lradius 32.8186 0 0
lwrist 17.4559 0 0
lhand -13.2896 -24.5618 0
lfingers 7.12502 0 0
lthumb 12.8141 5.02488 0
rclavicle -1.12313e-14 -6.36111e-15 0
rhumerus -36.6598 10.1208 -78.1344
rradius 42.2132 0 0
rwrist -20.8456 0 0
rhand -30.3406 -24.2694 0
rfingers 7.12502 0 0
rthumb -3.64639 -54.2179 0
182
root 8.10793 16.6846 -11.7625 7.65136 5.98394 -2.16955
lfemur -30.6207 7.71446 -18.7405
ltibia 60.6245 0 0
lfoot -13.1735 11.1463 0
ltoes -4.38802 0 0
rfemur -18.5009 3.78765 27.1423
rtibia 27.9023 0 0
rfoot -18.8428 1.49422 0
rtoes -14.4669 0 0
lowerback -4.6185 0.917749 0.514026
upperback -0.550288 1.12861 3.40003
thorax 1.96671 0.557953 3.28206
lowerneck -18.6607 -7.80284 -15.2535
upperneck 14.0934 -9.5834 15.6994
head 9.04455 -3.87918 6.60814
lclavicle -1.07302e-14 -8.21644e-15 0
lhumerus -45.8688 -11.4719 95.8094
lradius 32.7581 0 0
lwrist 17.3799 0 0
lhand -13.7354 -24.4389 0
lfingers 7.12502 0 0
lthumb 12.3841 5.17183 0
rclavicle -1.07302e-14 -8.21644e-15 0
rhumerus -37.0599 9.88699 -78.0746
rradius 42.8038 0 0
rwrist -21.1106 0 0
rhand -30.7745 -24.6243 0
rfingers 7.12502 0 0
rthumb -4.06533 -54.5631 0
183
root 8.10948 16.6774 -11.6367 7.60045 5.81123 -2.18118
lfemur -31.5226 7.59067 -18.9509
ltibia 59.7389 0 0
lfoot -13.6654 11.3456 0
ltoes -4.76828 0 0
rfemur -17.9184 3.88651 27.2451
rtibia 27.8756 0 0
rfoot -19.1601 1.48651 0
rtoes -14.1843 0 0
lowerback -4.52052 1.02285 0.547054
upperback -0.828618 1.27963 3.35877
thorax 1.61997 0.637387 3.22163
lowerneck -17.5634 -7.63197 -15.3777
upperneck 13.8918 -9.47273 15.8276
head 8.77553 -3.87263 6.70342
lclavicle -1.02291e-14 -1.00718e-14 0
lhumerus -46.5859 -11.4711 95.9696
lradius 32.6976 0 0
lwrist 17.3039 0 0
lhand -14.1813 -24.316 0
lfingers 7.12502 0 0
lthumb 11.9542 5.31878 0
rclavicle -1.02291e-14 -1.00718e-14 0
rhumerus -37.46 9.65319 -78.0149
rradius 43.3944 0 0
rwrist -21.3755 0 0
rhand -31.2084 -24.9792 0
rfingers 7.12502 0 0
rthumb -4.48427 -54.9083 0
184
root 8.11104 16.6703 -11.5109 7.54954 5.63851 -2.19282
lfemur -32.4246 7.46688 -19.1613
ltibia 58.8533 0 0
lfoot -14.1573 11.545 0
ltoes -5.14854 0 0
rfemur -17.336 3.98536 27.348
rtibia 27.8488 0 0
rfoot -19.4775 1.4788 0
rtoes -13.9017 0 0
lowerback -4.42254 1.12795 0.580082
upperback -1.10695 1.43066 3.31752
thorax 1.27324 0.716822 3.1612
lowerneck -16.4661 -7.4611 -15.502
upperneck 13.6901 -9.36206 15.9558
head 8.50652 -3.86608 6.7987
lclavicle -9.72801e-15 -1.19271e-14 0
lhumerus -47.3029 -11.4702 96.1298
lradius 32.6372 0 0
lwrist 17.2279 0 0
lhand -14.6271 -24.1932 0
lfingers 7.12502 0 0
lthumb 11.5242 5.46573 0
rclavicle -9.72801e-15 -1.19271e-14 0
rhumerus -37.8601 9.41938 -77.9551
rradius 43.9851 0 0
rwrist -21.6405 0 0
rhand -31.6422 -25.3341 0
rfingers 7.12502 0 0
rthumb -4.9032 -55.2536 0
185
root 8.1126 16.6631 -11.3852 7.49863 5.4658 -2.20445
lfemur -33.3266 7.3431 -19.3718
ltibia 57.9676 0 0
lfoot -14.6492 11.7444 0
ltoes -5.5288 0 0
rfemur -16.7536 4.08421 27.4508
rtibia 27.822 0 0
rfoot -19.7948 1.4711 0
rtoes -13.619 0 0
lowerback -4.32456 1.23304 0.61311
upperback -1.38528 1.58168 3.27626
thorax 0.926507 0.796256 3.10076
lowerneck -15.3689 -7.29022 -15.6263
upperneck 13.4885 -9.25139 16.084
head 8.2375 -3.85953 6.89399
lclavicle -9.22691e-15 -1.37824e-14 0
lhumerus -48.0199 -11.4693 96.29
lradius 32.5767 0 0
lwrist 17.1518 0 0
lhand -15.0729 -24.0703 0
lfingers 7.12502 0 0
lthumb 11.0942 5.61268 0
rclavicle -9.22691e-15 -1.37824e-14 0
rhumerus -38.2601 9.18558 -77.8953
rradius 44.5757 0 0
rwrist -21.9055 0 0
rhand -32.0761 -25.6889 0
rfingers 7.12502 0 0
rthumb -5.32214 -55.5988 0
186
root 8.11415 16.656 -11.2594 7.44772 5.29309 -2.21609
lfemur -34.2285 7.21931 -19.5823
ltibia 57.082 0 0
lfoot -15.1411 11.9437 0
ltoes -5.90906 0 0
rfemur -16.1711 4.18307 27.5536
rtibia 27.7953 0 0
rfoot -20.1121 1.46339 0
rtoes -13.3364 0 0
lowerback -4.22658 1.33814 0.646138
upperback -1.66361 1.73271 3.235
thorax 0.579774 0.87569 3.04033
lowerneck -14.2716 -7.11935 -15.7505
upperneck 13.2869 -9.14072 16.2122
head 7.96848 -3.85298 6.98927
lclavicle -8.72582e-15 -1.56378e-14 0
lhumerus -48.737 -11.4685 96.4502
lradius 32.5162 0 0
lwrist 17.0758 0 0
lhand -15.5188 -23.9474 0
lfingers 7.12502 0 0
lthumb 10.6643 5.75963 0
rclavicle -8.72582e-15 -1.56378e-14 0
rhumerus -38.6602 8.95177 -77.8356
rradius 45.1663 0 0
rwrist -22.1704 0 0
rhand -32.51 -26.0438 0
rfingers 7.12502 0 0
rthumb -5.74108 -55.944 0
187
root 8.11571 16.6488 -11.1336 7.39681 5.12038 -2.22772
lfemur -35.1305 7.09552 -19.7927
ltibia 56.1964 0 0
lfoot -15.633 12.1431 0
ltoes -6.28932 0 0
rfemur -15.5887 4.28192 27.6564
rtibia 27.7685 0 0
rfoot -20.4294 1.45568 0
rtoes -13.0538 0 0
lowerback -4.1286 1.44324 0.679166
upperback -1.94194 1.88373 3.19374
thorax 0.233041 0.955124 2.97989
lowerneck -13.1744 -6.94848 -15.8748
upperneck 13.0853 -9.03005 16.3404
head 7.69947 -3.84643 7.08455
lclavicle -8.22472e-15 -1.74931e-14 0
lhumerus -49.454 -11.4676 96.6104
lradius 32.4557 0 0
lwrist 16.9998 0 0
lhand -15.9646 -23.8245 0
lfingers 7.12502 0 0
lthumb 10.2343 5.90658 0
rclavicle -8.22472e-15 -1.74931e-14 0
rhumerus -39.0603 8.71797 -77.7758
rradius 45.7569 0 0
rwrist -22.4354 0 0
rhand -32.9439 -26.3987 0
rfingers 7.12502 0 0
rthumb -6.16002 -56.2892 0
